<?xml version="1.0" encoding="UTF-8"?>
<svg id="_レイヤー_2" data-name="レイヤー 2" xmlns="http://www.w3.org/2000/svg" viewBox="0 0 887.91 403.91">
  <g id="_レイヤー_1-2" data-name="レイヤー 1">
    <path d="M759.86,185.96c56.53-7.7,102.09-42.05,102.09-91.21,0-65.74-54.22-94.76-144.2-94.76-38.07,0-66.55,2-135.85,2.44-71.66.45-112.97-.67-142.39-1.26v9.48c44.41.59,54.8,5.92,54.8,26.06,0,10.66-4.04,26.06-10.96,46.19l-67.49,199.58-70.37-213.8c-4.61-13.62-7.5-24.28-7.5-31.98,0-17.77,10.38-24.87,49.61-26.06V1.18c-28.84.59-61.72,1.18-94.02,1.18s-61.14-.59-81.91-1.18v9.48c28.84.59,35.76,11.84,54.8,65.15l14.42,40.86-58.26,165.23-79.02-213.21c-5.77-14.21-8.65-25.47-8.65-33.76,0-15.99,9.23-23.69,47.3-24.28V1.18c-28.84.59-63.45,1.18-96.9,1.18S20.76,1.78,0,1.18v9.48c35.18.59,39.8,13.03,60.56,62.78l130.93,330.47h3.46l95.75-260.59,92.87,260.59h4.04l122.86-330.47c10.87-27.43,18.06-43.52,28.06-52.53,10.51-9.47,26.37-10.71,38.13-2.84,5.08,3.4,8.09,8.1,10.16,14.5,5.19,15.4,5.19,63.37,5.19,156.35v21.32c0,92.98,0,140.95-5.19,156.35-5.19,15.99-15.57,21.32-48.45,22.51v8.88h199.57c93.44,0,149.97-47.38,149.97-112.53,0-68.7-68.06-98.9-128.05-99.5ZM669.31,18.36s13.27-2.37,32.3-2.37c44.99,0,80.18,24.28,80.18,79.95s-29.99,85.28-52.49,85.88l-59.99,1.78V18.36ZM726.41,382.59c-38.07,0-57.1-11.84-57.1-52.12v-135.62l46.72.59c50.18.59,89.4,33.17,89.4,92.39,0,63.37-32.3,94.76-79.02,94.76Z"/>
  </g>
</svg>