<?xml version="1.0" encoding="UTF-8"?>
<svg id="_レイヤー_2" data-name="レイヤー 2" xmlns="http://www.w3.org/2000/svg" viewBox="0 0 1630.61 270.02">
  <g id="_レイヤー_1-2" data-name="レイヤー 1">
    <g>
      <path d="M179.16,112.03l-59.01,157.99h-2.13L37.32,69.66C24.53,39.5,21.68,31.96,0,31.6v-5.75c12.8.36,31.99.72,52.61.72s41.95-.36,59.72-.72v5.75c-23.46.36-29.15,5.03-29.15,14.72,0,5.03,1.78,11.85,5.33,20.47l48.7,129.27,35.9-100.18-8.89-24.78c-11.73-32.32-16-39.14-33.77-39.5v-5.75c12.8.36,30.93.72,50.48.72s40.17-.36,57.94-.72v5.75c-24.17.72-30.57,5.03-30.57,15.8,0,4.67,1.78,11.13,4.62,19.39l43.37,129.62,41.59-121.01c4.27-12.21,6.75-21.54,6.75-28.01,0-12.21-6.4-15.44-33.77-15.8v-5.75c18.13.36,31.99.72,44.44.72s26.31-.36,38.75-.72v5.75c-22.39,0-27.02,7.18-39.46,38.06l-75.72,200.36h-2.49l-57.23-157.99Z"/>
      <path d="M475.73,183.84c0,50.99-43.01,86.18-87.45,86.18s-87.45-34.11-87.45-84.38,43.37-86.54,87.45-86.54,87.45,34.47,87.45,84.74ZM427.03,187.07c0-44.88-14.22-79.71-38.75-79.71s-38.39,29.44-38.39,75.05,14.22,79.71,38.39,79.71,38.75-29.44,38.75-75.05Z"/>
      <path d="M568.5,266.43c-9.95-.36-25.24-.72-40.52-.72s-30.57.36-39.46.72v-5.03l3.56-.36c10.31-1.44,10.31-3.59,10.31-31.6v-79.71c0-4.67-.36-8.98-4.27-14l-8.53-12.93v-1.8c17.06-5.39,40.88-15.08,55.81-22.98l1.78.72c-.71,7.54-1.42,24.42-1.42,36.27v3.59c13.86-21.9,27.02-39.14,43.72-39.14,13.86,0,22.39,9.69,22.39,24.06s-11.38,22.62-21.33,22.62c-13.51,0-16.35-12.57-27.73-12.57-6.04,0-11.38,3.95-17.06,9.69v85.82c0,28.01.36,30.16,9.24,30.88l13.51,1.08v5.39Z"/>
      <path d="M791.8,266.43c-11.02-.36-24.88-.72-38.75-.72s-28.44.36-41.24.72v-5.03c10.31-.72,12.09-1.08,12.09-3.95,0-2.15-2.13-6.1-5.33-11.49l-35.19-57.45c-2.84-4.67-5.33-6.46-11.02-6.82v47.76c0,28.01,0,30.16,8.89,31.24l4.98.72v5.03c-7.82-.36-21.68-.72-35.55-.72s-27.73.36-35.55.72v-5.03l3.55-.36c10.31-1.44,10.31-3.59,10.31-31.6V47.4c0-4.67,0-9.34-4.27-14l-11.38-12.93v-1.8c17.77-4.31,43.01-12.21,59.01-18.67l1.78.72c-.71,7.54-1.78,29.44-1.78,69.66v107.36c6.04-.72,11.02-2.87,15.64-7.18l47.99-46.32c3.91-3.59,6.75-7.54,6.75-10.05,0-3.95-2.84-5.03-16.71-6.82v-4.67c8.53.72,18.84.72,29.5.72s20.97,0,29.86-.72v4.31c-14.22,2.15-22.04,6.82-28.08,12.57l-44.08,39.86,50.48,78.28c10.31,16.16,13.51,21.19,28.08,24.06v4.67Z"/>
      <path d="M848.54,126.03c11.38-10.41,33.77-26.93,55.1-26.93,37.32,0,64.7,30.16,64.7,75.76,0,59.25-47.28,95.15-91,95.15-28.44,0-55.45-7.54-73.23-21.54.71-19.39,1.07-34.47,1.07-56.01V47.4c0-4.67,0-9.34-4.27-14l-11.38-12.93v-1.8c17.77-4.31,43.37-12.21,59.01-18.67l1.78.72c-.71,7.54-1.78,29.44-1.78,69.66v55.66ZM848.54,129.27v86.89c0,29.44,13.51,43.81,31.64,43.81,24.17,0,41.95-24.78,41.95-67.15s-22.04-67.5-51.9-67.5c-7.82,0-15.64,1.44-21.68,3.95Z"/>
      <path d="M1061.02,270.02c-42.66,0-76.43-31.24-76.43-79,0-54.58,41.59-91.92,83.89-91.92,30.57,0,55.45,16.52,55.45,45.24,0,7.9-3.91,14-14.58,14h-81.4c-.36,2.87-.36,6.1-.36,9.34,0,45.24,24.88,72.17,60.79,72.17,14.93,0,27.02-5.39,38.04-17.95l1.78,1.08c-10.31,27.65-38.39,47.04-67.18,47.04ZM1029.03,151.89l47.63-1.8c7.11-.36,9.24-4.31,9.24-9.34,0-19.75-7.11-31.6-22.04-31.6-17.06,0-30.57,18.31-34.84,42.73Z"/>
      <path d="M1307.86,266.43c-7.82-.36-21.33-.72-35.19-.72s-27.73.36-35.55.72v-5.03l3.55-.36c9.95-1.44,9.95-3.59,9.95-31.6v-53.5c0-29.8-7.82-50.27-30.57-50.27-4.98,0-12.44,1.08-19.91,4.31v99.46c0,28.01,0,30.16,9.24,31.24l4.62.72v5.03c-7.82-.36-21.68-.72-35.55-.72s-27.73.36-35.55.72v-5.03l3.56-.36c10.31-1.44,10.31-3.59,10.31-31.6v-79.71c0-4.67-.36-8.98-4.27-14l-8.53-12.93v-1.8c17.06-5.39,40.88-14.72,55.81-22.62l1.78.72c-.71,6.46-1.07,18.67-1.42,26.57,14.93-11.85,37.68-26.57,55.45-26.57,23.46,0,38.75,20.11,38.75,44.52v85.82c0,28.01,0,30.16,8.89,31.24l4.62.72v5.03Z"/>
      <path d="M1407.81,99.1c23.1,0,47.99,10.41,47.99,29.8,0,9.69-8.53,16.88-17.42,16.88-23.82,0-16.35-35.91-37.32-35.91-22.75,0-40.17,24.78-40.17,58.17,0,45.6,23.82,72.17,59.37,72.17,14.57,0,27.37-5.39,38.04-18.31l1.78,1.08c-10.31,27.65-37.68,47.04-65.76,47.04-42.66,0-76.43-31.24-76.43-79,0-53.86,43.72-91.92,89.94-91.92Z"/>
      <path d="M1630.61,266.43c-7.82-.36-21.33-.72-35.55-.72s-27.37.36-35.19.72v-5.03l3.55-.36c9.95-1.44,9.95-3.59,9.95-31.6v-53.5c0-29.8-7.82-50.27-30.57-50.27-4.98,0-12.8,1.08-19.91,4.31v99.46c0,28.01,0,30.16,8.89,31.24l4.98.72v5.03c-7.82-.36-21.68-.72-35.55-.72s-27.73.36-35.55.72v-5.03l3.55-.36c10.31-1.44,10.31-3.59,10.31-31.6V47.4c0-4.67,0-9.34-4.27-14l-11.38-12.93v-1.8c17.77-4.31,43.01-12.21,59.01-18.67l1.78.72c-.71,7.54-1.78,29.44-1.78,69.66v55.3c14.57-11.49,37.68-26.57,55.45-26.57,23.46,0,38.75,20.11,38.75,44.52v85.82c0,28.01,0,30.16,8.89,31.24l4.62.72v5.03Z"/>
    </g>
  </g>
</svg>